# xmcd CD database file
#
# Track frame offsets:
#	150
#	22788
#	41907
#	63736
#	82773
#	102225
#	123780
#	145991
#	163851
#	187220
#	211051
#	224638
#	247462
#
# Disc length: 3567 seconds
#
# Revision: 0
# Processed by: cddbd v1.5.2PL0 Copyright (c) Steve Scherf et al.
# Submitted via: CDex 1.70beta2
#
DISCID=c40ded0d
DTITLE=Chris Rea - King Of The Beach
DYEAR=1900
DGENRE=Blues
TTITLE0=King Of The Beach
TTITLE1=All Summer Long
TTITLE2=Sail Away
TTITLE3=Still Beautiful
TTITLE4=The Bones Of Angels
TTITLE5=Guitar Street
TTITLE6=Who Do You Love
TTITLE7=The Memory Of A Good Friend
TTITLE8=Sandwriting
TTITLE9=Tamatave
TTITLE10=God Gave Me An Angel
TTITLE11=Waiting For A Blue Sky
TTITLE12=Mississippi
EXTD=
EXTT0=
EXTT1=
EXTT2=
EXTT3=
EXTT4=
EXTT5=
EXTT6=
EXTT7=
EXTT8=
EXTT9=
EXTT10=
EXTT11=
EXTT12=
PLAYORDER=
